<svg width="400" height="400" viewBox="0 0 400 400" fill="none" xmlns="http://www.w3.org/2000/svg">
<path d="M0 200C0 89.5431 89.5431 0 200 0C310.457 0 400 89.5431 400 200C400 310.457 310.457 400 200 400C89.5431 400 0 310.457 0 200Z" fill="#91BF83"/>
<path d="M205.013 214.472L205.461 215.954C205.467 215.977 205.471 216.001 205.471 216.025C205.471 216.125 205.409 216.215 205.316 216.251L204.555 216.545L203.487 216.797C203.048 216.931 202.592 217 202.134 217H201.908C201.774 217 201.64 216.988 201.507 216.964C200.918 216.857 200.395 216.521 200.055 216.028L200.027 215.989L199.94 215.869C199.559 215.344 199.246 214.773 199.01 214.169L198.501 213.007L197.687 210.732L197.178 209.216L196.771 208.154L196.364 206.638L196.008 205.374L195.703 204.01L195.448 202.645L195.143 201.482L194.94 200.471L194.634 199.006L194.38 197.59L194.075 195.973L193.999 195.553C193.88 194.891 193.82 194.219 193.82 193.547V193.235C193.82 192.878 193.714 192.529 193.515 192.233C193.245 191.864 193.026 191.458 192.904 191.018C192.882 190.94 192.864 190.87 192.854 190.817C192.813 190.615 192.633 190.16 192.548 189.958L192.243 189.048L191.785 187.886L191.429 186.875L191.073 185.813L190.564 184.6L190.157 183.539L189.801 182.578L189.394 181.618L189.089 180.607L188.733 179.697L188.173 178.434L187.613 177.221L186.749 175.452L185.731 173.48L185.273 172.318L184.815 171.206L184.408 170.195L183.95 168.881C183.747 168.477 183.584 168.055 183.462 167.62L183.391 167.364L183.085 166.404L182.831 165.242L182.577 164.028C182.34 163.255 182.166 162.463 182.059 161.661L181.915 160.591L181.712 159.53L181.457 157.862L181.203 156.497L181 154.425V152.302V151.443V150.179V148.663V147.349C181 146.541 181.067 145.735 181.2 144.939L181.203 144.923L181.388 144.113C181.429 143.936 181.586 143.811 181.768 143.811C181.863 143.811 181.955 143.845 182.026 143.908L182.251 144.107C182.332 144.179 182.403 144.261 182.462 144.352L182.831 144.923C183.102 145.293 183.345 145.682 183.559 146.088L183.798 146.54L184.05 147.126C184.186 147.441 184.374 147.73 184.607 147.982C184.745 148.132 184.868 148.296 184.974 148.471L185.022 148.55C185.189 148.826 185.389 149.081 185.618 149.309L185.985 149.674L186.358 150.01C186.482 150.122 186.621 150.217 186.771 150.291L186.897 150.354C187.067 150.439 187.254 150.482 187.444 150.482C187.866 150.482 188.259 150.266 188.483 149.908L188.631 149.674L188.646 149.651C188.935 149.204 189.089 148.683 189.089 148.151C189.089 147.788 189.018 147.429 188.876 147.095C188.776 146.859 188.676 146.63 188.631 146.54C188.55 146.378 188.36 145.933 188.275 145.731L187.766 144.569L187.722 144.493C187.345 143.837 187.019 143.152 186.749 142.446L186.291 140.778L185.985 138.756L185.782 137.442L185.578 135.673V134.156V132.691V131.326L185.782 129.81L185.985 128.596L186.138 127.636L186.291 126.777L186.749 125.311L187.156 124.25L187.563 123.441L187.97 122.632L188.198 122.215C188.246 122.129 188.336 122.076 188.433 122.076C188.525 122.076 188.61 122.123 188.659 122.2L188.812 122.438C188.893 122.565 188.936 122.712 188.936 122.862V123.15C188.936 123.243 188.944 123.335 188.958 123.427L189.089 124.25L189.343 125.159L189.699 126.17L190.005 126.777L190.316 127.302C190.447 127.524 190.598 127.735 190.765 127.932L190.93 128.125C191.025 128.237 191.108 128.358 191.178 128.488L191.311 128.731C191.388 128.875 191.5 128.997 191.637 129.088C191.8 129.196 191.991 129.254 192.187 129.254H192.243H192.338C192.503 129.254 192.661 129.18 192.767 129.053C192.824 128.986 192.864 128.906 192.884 128.82L193.006 128.293L193.21 126.928L193.413 125.311V123.441V122.756C193.413 121.361 193.515 119.968 193.719 118.589L194.024 116.112L194.083 115.627C194.213 114.571 194.449 113.532 194.787 112.523L195.347 111.26L195.804 110.198L196.415 108.985L197.025 107.772L197.636 106.711L198.399 105.447L199.264 104.133C199.603 103.627 200.292 102.576 200.332 102.414C200.373 102.252 200.824 101.639 201.045 101.353L201.96 99.8869L202.927 98.7244L203.894 97.3597L204.911 95.9444L205.674 94.9335L206.895 93.5688L208.015 92.103L209.134 90.991L210.762 89.1714L212.492 87.7056L214.985 85.2289L216.358 83.8642L217.783 82.4995L219.055 81.4886L220.429 80.5282L222.158 79.113L223.735 78.0515L225.923 76.6363L228.213 75.0694L229.484 74.3112L230.553 73.6541L231.265 73.1992L232.741 72.3399L234.674 71.3796L236.505 70.6214L238.439 70.0149L240.321 69.5094L242 69.1556L243.882 68.9029L246.019 68.5996H249.021C249.799 68.5996 250.575 68.676 251.339 68.8277L251.717 68.9029L252.887 69.1556L254.617 69.5094L254.884 69.604C255.654 69.8774 256.399 70.2178 257.11 70.6214L258.331 71.3796C259.212 72.0189 260.052 72.7356 260.824 73.5025L262.096 74.8166L262.159 74.8845C262.893 75.6773 263.506 76.5742 263.978 77.5461L264.589 78.9108C264.992 79.8784 265.2 80.9162 265.2 81.9644V82.3478V84.6502C265.2 85.607 265.114 86.5618 264.945 87.5034L264.589 88.9187C264.284 89.8272 263.911 90.7111 263.471 91.5629L263.063 92.3557L261.943 94.1248L261.028 95.2873L259.858 96.7532L258.891 97.9157L257.721 99.0782L256.601 100.291L255.584 101.353C254.636 102.328 253.601 103.214 252.492 104.001L252.379 104.082L250.852 105.295L249.581 106.256L248.716 107.064L247.596 108.176L246.477 109.187L245.307 110.299L244.035 111.411C243.713 111.748 243.038 112.452 242.916 112.574C242.794 112.695 242.322 113.197 242.102 113.433L240.932 114.545L240.792 114.683C240.242 115.23 239.744 115.827 239.304 116.466L238.693 117.224C238.439 117.578 237.899 118.316 237.777 118.437C237.76 118.454 237.736 118.478 237.707 118.505C237.252 118.937 236.827 119.399 236.454 119.903L235.742 120.762C235.539 120.981 235.122 121.46 235.081 121.621C235.03 121.823 234.419 122.582 234.318 122.683C234.236 122.764 233.911 123.289 233.758 123.542L233.148 124.452L232.435 125.362L231.774 126.322L231.112 127.383L230.553 128.546L229.688 130.062L229.128 131.376L228.569 132.337L228.06 133.499C227.789 134.104 227.58 134.735 227.435 135.382L227.348 135.774L227.245 136.241C227.145 136.701 226.959 137.137 226.697 137.527L226.653 137.592C226.406 137.96 226.089 138.275 225.72 138.52C225.584 138.61 225.442 138.69 225.295 138.759L224.549 139.11L223.481 139.666C223.227 139.834 222.647 140.191 222.362 140.272C221.745 140.448 221.272 140.945 220.724 141.278L220.632 141.334L219.92 141.839L219.268 142.209C218.992 142.366 218.746 142.569 218.541 142.811C218.375 143.005 218.184 143.174 217.972 143.315L217.223 143.811L216.358 144.569L215.392 145.479L214.425 146.54L213.764 147.349L213.301 147.907C213.135 148.107 212.984 148.32 212.849 148.543L212.776 148.664C212.655 148.865 212.552 149.077 212.471 149.297C212.316 149.713 212.237 150.154 212.237 150.598V150.634L212.305 151.167C212.327 151.349 212.385 151.525 212.475 151.685C212.553 151.826 212.655 151.952 212.776 152.059L212.852 152.126C212.984 152.243 213.132 152.342 213.29 152.421L213.339 152.445C213.618 152.584 213.926 152.656 214.238 152.656C214.594 152.656 214.943 152.562 215.251 152.383L215.392 152.302L216.358 151.696L217.223 151.241L217.986 150.786L218.851 150.179L219.513 149.674L220.632 148.966L221.271 148.578C221.447 148.471 221.66 148.445 221.857 148.506C222.157 148.599 222.362 148.877 222.362 149.192V149.472C222.362 150.11 222.298 150.747 222.172 151.373L222.107 151.696L222.072 151.832C221.858 152.65 221.581 153.449 221.243 154.223L220.632 155.891L220.174 157.255C219.988 157.677 219.594 158.57 219.513 158.772C219.431 158.974 219.038 159.833 218.851 160.238L218.292 161.299L217.376 162.714L216.358 164.028L215.392 165.242L214.018 167.112L213.625 167.832C213.243 168.53 212.812 169.201 212.335 169.838C211.83 170.513 211.376 171.225 210.978 171.969L210.304 173.228C209.965 173.934 209.576 174.616 209.14 175.267L208.88 175.654L208.269 176.816L207.659 178.232L207.099 179.697L206.336 181.618L205.166 184.348L204.555 186.117L203.843 188.593L203.182 191.07C202.944 192.483 202.825 193.913 202.825 195.346V195.973V198.702V201.482V203.049L203.182 205.88L203.487 207.598L203.843 209.62L204.199 211.49L204.555 212.804L205.013 214.472Z" fill="#F5F2D5"/>
<path d="M173.35 199.998H171.5H171.186C171.097 199.998 171.011 199.972 170.937 199.923C170.912 199.907 170.889 199.888 170.868 199.867L170.843 199.842C170.781 199.78 170.73 199.709 170.691 199.631L170.68 199.609C170.66 199.569 170.643 199.527 170.628 199.484L170.6 199.398C170.567 199.266 170.55 199.129 170.55 198.992V198.598C170.55 198.267 170.506 197.936 170.418 197.616L170.4 197.548L170.25 196.748C170.15 196.349 170.003 195.963 169.886 195.568C169.864 195.494 169.85 195.433 169.85 195.398C169.85 195.278 169.65 194.848 169.55 194.648L169.25 194.098L169.1 193.798C169.06 193.718 168.75 193.232 168.6 192.998L168.2 192.248L167.75 191.498L167.3 190.548C167 190.049 166.663 189.574 166.29 189.127L166.1 188.898L165.6 188.098L165.05 187.298C164.9 187.098 164.59 186.698 164.55 186.698C164.51 186.698 164.233 186.298 164.1 186.098L163.6 185.448L163.05 184.848L162.55 184.348L162 183.698C161.783 183.498 161.33 183.078 161.25 182.998L160.55 182.298L159.85 181.498L159.35 180.998C159.31 180.958 158.9 180.515 158.7 180.298L158.1 179.648L157.3 178.748C157.133 178.565 156.79 178.178 156.75 178.098C156.71 178.018 156.267 177.532 156.05 177.298L155.25 176.498L155.099 176.358C154.7 175.986 154.333 175.581 154 175.148L153.4 174.398L152.9 173.748L152.35 172.848L151.9 172.198L151.45 171.498L150.85 170.648C150.717 170.415 150.43 169.918 150.35 169.798C150.25 169.648 150 169.148 149.95 169.048C149.91 168.968 149.533 168.148 149.35 167.748L148.95 166.598L148.35 165.298L147.6 163.398L147.1 161.948L146.7 160.548L146.4 158.898L146.1 157.348L145.85 156.298L145.821 156.13C145.674 155.277 145.6 154.414 145.6 153.548V152.848V151.848V150.848V149.648V148.548V147.498C145.6 147 145.646 146.502 145.736 146.011L145.85 145.398L146.05 144.348L146.3 143.248L146.55 142.348L146.75 141.448L147.05 140.498L147.5 139.098L147.85 138.048L148.25 136.998L148.8 135.798L149.15 135.048L149.18 134.949C149.393 134.251 149.684 133.58 150.05 132.948L150.8 131.648L151.4 130.598L152.15 129.348L152.184 129.288C152.561 128.629 152.984 127.998 153.45 127.398L154.1 126.448L154.85 125.348L155.85 123.698L156.7 122.348C156.967 122.032 157.53 121.358 157.65 121.198C157.8 120.998 158.3 120.298 158.45 120.098C158.89 119.512 159.339 118.933 159.716 118.304L159.75 118.248L161.05 116.548L162 115.098L162.75 113.898C162.933 113.582 163.32 112.898 163.4 112.698C163.5 112.448 163.95 111.798 164 111.598C164.04 111.438 164.383 110.832 164.55 110.548C164.717 110.198 165.07 109.468 165.15 109.348C165.588 108.692 165.816 107.919 166.049 107.165L166.1 106.998L166.5 105.948L166.8 104.798L167.15 103.498L167.161 103.433C167.287 102.678 167.35 101.914 167.35 101.148V100.098V99.3984V98.6484V97.7984V96.8484V96.5339C167.35 96.2111 167.316 95.8893 167.25 95.5734L167.231 95.4862C167.177 95.2284 167.15 94.9656 167.15 94.7022C167.15 94.4669 167.128 94.2321 167.085 94.0008L167 93.5484L166.7 92.5484L166.4 91.6484L166.15 90.8484L165.75 89.8984L165.45 89.1984L165.05 88.3484L164.6 87.3984L164.3 86.7984L163.8 85.8484L163.4 84.9984L163.05 84.1984L162.75 83.3984L162.5 82.6984L162.25 81.8984L161.9 80.6484C161.734 79.9502 161.638 79.237 161.614 78.5197L161.6 78.0984V77.0984V77.0637C161.6 76.1881 161.667 75.3138 161.8 74.4484L161.95 73.1984L162.1 71.9984L162.211 71.2769C162.27 70.8922 162.367 70.5142 162.5 70.1484L162.75 69.5484L163.25 68.4484L163.8 67.3984L164.35 66.4484L164.928 65.6135C165.142 65.3041 165.384 65.0146 165.65 64.7484L166.1 64.1984L166.55 63.7484L166.572 63.7243C166.89 63.3742 167.234 63.048 167.6 62.7484L168.15 62.3484L168.247 62.2901C168.513 62.1305 168.807 62.0236 169.114 61.9752L169.312 61.9439C169.502 61.9139 169.696 61.9225 169.882 61.9691L169.893 61.9718C170.095 62.0222 170.283 62.1176 170.443 62.2508L170.507 62.3041C170.697 62.4626 170.83 62.6791 170.886 62.9203C170.928 63.1029 170.924 63.293 170.875 63.4738L170.8 63.7484C170.667 64.1808 170.493 64.5994 170.28 64.9985L170.2 65.1484L169.6 66.4484L169.15 67.3984L168.65 68.4484L168.15 69.7984C167.786 70.8578 167.6 71.9702 167.6 73.0903V73.1984C167.6 74.0296 167.693 74.8572 167.842 75.6748C167.877 75.8646 167.9 76.0075 167.9 76.0484C167.9 76.1093 167.986 76.3869 168.092 76.7067C168.289 77.3018 168.567 77.8667 168.9 78.3984L169.9 79.6484L170.8 80.6484L172.15 82.4484L173.4 84.1984L174.3 85.8484L175.3 87.7984L176.25 90.2984L176.85 92.2484L177.35 93.9984C177.748 95.4586 177.95 96.9653 177.95 98.4788V100.098V100.523C177.95 101.704 177.849 102.884 177.65 104.048L177.35 105.748L177 107.848C176.95 108.148 176.55 109.898 176.4 110.348C176.25 110.798 175.85 112.298 175.75 112.698C175.67 113.018 175.15 114.265 174.9 114.848L174.503 115.748C174.135 116.58 173.69 117.375 173.174 118.125L173.1 118.232C172.634 118.908 172.233 119.626 171.9 120.377C171.468 121.354 170.919 122.275 170.265 123.12L169.7 123.848L168.75 125.348L167.4 127.398L166.3 128.898L165.05 130.598L163.85 132.498L162.25 135.298L161.05 137.348C160.186 138.877 159.498 140.498 158.999 142.182L158.95 142.348L158.25 145.598C157.884 147.36 157.7 149.155 157.7 150.955V151.448V154.648C157.7 156.211 157.866 157.769 158.195 159.296L158.25 159.548L158.95 162.598L159.75 165.148L160.6 167.498L162 170.398L164.05 174.198L165.85 177.148L168.5 180.598L170.35 183.448L172.25 186.698L173.35 189.098L174.05 191.098C174.416 192.164 174.7 193.255 174.899 194.364L174.95 194.648L175.024 195.165C175.174 196.219 175.25 197.283 175.25 198.348V198.948V199.024C175.25 199.139 175.228 199.254 175.185 199.361C175.162 199.419 175.132 199.475 175.097 199.527L175.037 199.618C174.979 199.704 174.907 199.779 174.823 199.839C174.678 199.943 174.504 199.998 174.326 199.998H173.35Z" fill="#F5F2D5"/>
<path d="M226.7 196.643V198.939C226.7 199.133 226.751 199.325 226.847 199.494L226.878 199.548C226.959 199.691 227.078 199.808 227.221 199.888C227.355 199.963 227.505 200.002 227.658 200.002H231.049H232.063C232.17 200.002 232.257 199.915 232.257 199.808C232.257 199.781 232.263 199.753 232.274 199.728L232.498 199.236L232.861 198.293L233.284 197.527L233.526 196.937C233.606 196.742 233.713 196.559 233.844 196.395C233.993 196.208 234.111 195.998 234.193 195.774L234.371 195.287L234.529 194.916C234.625 194.693 234.738 194.477 234.868 194.271L235.016 194.036C235.109 193.889 235.219 193.753 235.344 193.631C235.5 193.479 235.632 193.305 235.737 193.114L235.791 193.017C235.93 192.765 236.114 192.54 236.333 192.353C236.434 192.266 236.528 192.172 236.613 192.07L237.028 191.575L237.451 191.103C237.732 190.829 237.986 190.527 238.207 190.203L238.236 190.16L238.78 189.512L239.263 189.041C239.424 188.864 239.771 188.475 239.867 188.333C239.936 188.233 240.13 188.048 240.294 187.9C240.411 187.795 240.522 187.684 240.624 187.565C240.723 187.449 240.831 187.34 240.947 187.241L241.8 186.507L242.283 185.976L242.431 185.783C242.693 185.443 243.01 185.149 243.37 184.915L244.161 184.337C244.277 184.252 244.374 184.144 244.447 184.02C244.533 183.873 244.654 183.749 244.799 183.659L245.061 183.496C245.182 183.421 245.295 183.335 245.4 183.239L246.061 182.634C246.16 182.544 246.264 182.461 246.374 182.386L246.648 182.199C246.757 182.125 246.851 182.031 246.926 181.922C247.011 181.797 247.121 181.693 247.25 181.614L247.538 181.438L248.142 181.085L248.625 180.79L249.108 180.437L249.214 180.347C249.464 180.133 249.744 179.955 250.044 179.82C250.265 179.721 250.475 179.598 250.671 179.455L251.101 179.14L251.47 178.817C251.626 178.679 251.798 178.56 251.981 178.46C252.159 178.364 252.326 178.248 252.479 178.115L252.534 178.067C252.706 177.919 252.892 177.787 253.089 177.675L253.289 177.561C253.441 177.475 253.58 177.369 253.705 177.248C253.781 177.174 253.863 177.106 253.949 177.044L254.484 176.665L254.658 176.547C255.064 176.273 255.434 175.95 255.761 175.586C255.996 175.324 256.254 175.083 256.532 174.866L256.743 174.701C257.129 174.4 257.489 174.068 257.82 173.709L258.41 173.07L258.953 172.54L260.04 171.597C260.683 170.969 261.27 170.287 261.794 169.557L261.852 169.475L262.577 168.591L263.362 167.53L264.087 166.764L264.631 166.057L264.876 165.668C265.356 164.907 265.779 164.111 266.141 163.287L266.865 161.991L267.349 160.753L268.134 159.162L268.496 158.101L268.677 157.394L268.859 156.392L268.979 155.626L269.1 154.448V153.151V151.855V150.912V150.146V149.556C269.1 149.36 269.078 149.165 269.035 148.974L268.979 148.731L268.677 147.612L268.496 147.022L268.362 146.609C268.21 146.139 268.012 145.685 267.771 145.254L267.349 144.429L266.865 143.722L266.774 143.544C266.594 143.192 266.382 142.857 266.141 142.543L265.597 141.836L265.28 141.489C265.17 141.367 265.047 141.257 264.914 141.16C264.726 141.022 264.559 140.858 264.416 140.674L264.332 140.563C264.169 140.352 263.983 140.16 263.776 139.992L263.362 139.656L262.879 139.184L262.034 138.536C261.812 138.32 261.333 137.888 261.188 137.888C261.007 137.888 260.705 137.652 260.524 137.475C260.342 137.298 260.04 137.24 260.04 137.063C260.04 136.886 259.557 136.945 259.376 136.827C259.195 136.709 259.134 136.532 258.953 136.532C258.852 136.532 258.685 136.436 258.553 136.344C258.455 136.277 258.356 136.211 258.249 136.159C258.037 136.056 257.804 136.002 257.567 136.002H256.96H256.756C256.251 136.002 255.749 136.082 255.269 136.238L254.884 136.382C254.62 136.481 254.38 136.634 254.178 136.831C254.02 136.984 253.889 137.163 253.788 137.359L253.517 137.888L253.155 138.536L252.925 138.947C252.837 139.105 252.761 139.27 252.699 139.44C252.561 139.817 252.491 140.215 252.491 140.616V140.952V141.659V142.367V142.581C252.491 142.981 252.595 143.374 252.793 143.722L253.517 144.724L253.94 145.254L254.484 145.903L254.787 146.265C254.945 146.452 255.147 146.597 255.375 146.687C255.544 146.753 255.724 146.786 255.906 146.786H256.123C256.397 146.786 256.67 146.743 256.931 146.658L257.262 146.551L257.409 146.479C257.631 146.371 257.829 146.219 257.992 146.034C258.069 145.947 258.154 145.866 258.246 145.795L258.41 145.667L258.664 145.474C258.84 145.34 259.078 145.324 259.27 145.431C259.34 145.47 259.4 145.523 259.448 145.588L259.678 145.903C259.912 146.168 260.04 146.51 260.04 146.864V147.612V148.731V149.969V151.265V152.208C260.04 152.831 259.921 153.448 259.688 154.026L259.376 154.801C259.054 155.528 258.349 157.064 258.108 157.394C257.866 157.724 257.443 158.239 257.262 158.455L256.537 159.162L255.631 160.223L254.484 161.343L253.517 162.286L253.259 162.517C252.948 162.794 252.617 163.048 252.268 163.275L252.216 163.309C251.876 163.53 251.555 163.779 251.256 164.052C250.912 164.367 250.534 164.651 250.137 164.896C249.777 165.118 249.432 165.372 249.114 165.651L248.958 165.788C248.575 166.124 248.168 166.43 247.739 166.704L246.813 167.295L245.484 168.061L244.337 168.886C243.693 169.278 243.082 169.72 242.507 170.208L241.981 170.654L240.773 171.597L240.01 172.164C239.674 172.414 239.363 172.696 239.081 173.005C238.721 173.4 238.313 173.75 237.867 174.046L237.816 174.08C237.293 174.426 236.819 174.842 236.407 175.315L236.002 175.781L234.673 177.136L233.284 178.61L232.257 180.024L231.049 181.733L230.083 183.383L229.237 185.269L228.271 187.98L227.425 190.455C226.944 192.412 226.7 194.42 226.7 196.436V196.643Z" fill="#F5F2D5"/>
<path d="M260.57 232.216L261.43 225.472C261.452 225.358 261.544 225.144 261.627 225.072C261.758 224.957 261.758 224.958 261.823 224.9L261.824 224.9C261.889 224.843 262.02 224.729 262.152 224.672C262.283 224.614 262.44 224.5 262.676 224.5C263.07 224.5 262.873 224.5 263.267 224.5H263.661H265.039H265.892H266.81H268.057L268.058 224.5C268.19 224.5 269.042 224.5 269.304 224.557C269.566 224.614 269.762 224.671 269.959 224.728L269.96 224.729C270.157 224.786 270.894 224.962 271.273 225.072C271.666 225.186 271.601 225.186 271.994 225.301C272.388 225.415 272.651 225.472 272.782 225.529C272.913 225.587 273.569 225.815 273.7 225.872C273.832 225.93 274.16 226.101 274.422 226.216C274.685 226.33 275.406 226.787 275.603 226.902L275.63 226.917C275.849 227.044 276.389 227.358 276.588 227.531C276.784 227.702 277.047 227.874 277.178 227.988C277.332 228.122 277.834 228.503 277.9 228.56L278.687 229.246C279.162 229.66 279.509 230.207 279.833 230.747L280.065 231.133L280.656 232.392L281.181 233.592C281.312 233.821 281.509 234.393 281.575 234.565C281.667 234.807 281.91 235.492 281.968 235.594C282.034 235.708 282.1 236.109 282.1 236.337C282.056 236.719 282.1 237.527 282.1 237.71V238.796V240.169C282.1 240.26 281.968 240.855 281.837 241.198L281.706 241.598L281.575 241.941L281.378 242.57L281.115 243.142L280.853 243.886L280.59 244.686C280.481 245.029 280.262 245.67 280.262 245.716C280.262 245.773 279.869 246.802 279.737 246.974C279.606 247.145 279.278 248.003 279.212 248.06C278.713 248.495 278.388 249.098 277.924 249.57L277.834 249.661C277.572 249.871 277.086 250.428 276.981 250.519C276.85 250.633 276.522 251.091 276.456 251.148C276.391 251.205 275.866 251.834 275.735 251.949C275.603 252.063 275.428 252.254 275.341 252.349L274.882 252.978C274.663 253.207 274.278 253.618 274.225 253.664C273.922 253.928 273.686 254.262 273.398 254.542L273.241 254.694L272.519 255.38L271.929 256.009L271.273 256.581L270.813 256.981L270.223 257.439L269.632 257.782L269.107 258.125L268.648 258.411L268.188 258.696L267.532 259.097L266.81 259.497L266.286 259.783L265.564 260.069L264.908 260.298L264.186 260.584L263.07 260.984L262.414 261.213L261.561 261.441L260.511 261.727L259.724 261.899L258.411 262.185L257.689 262.356L256.771 262.585L255.983 262.757L255.13 262.928L254.343 263.1L253.227 263.329L252.374 263.443L251.587 263.5C251.174 263.5 250.859 263.13 250.925 262.723L251.829 257.136C252.076 255.611 253.276 254.418 254.802 254.179L257.099 253.664L258.805 253.264L260.511 252.749L261.692 252.349L263.136 251.777L263.359 251.665C264.04 251.321 264.69 250.919 265.301 250.462L266.417 249.661L267.27 248.975L268.123 248.175L269.107 247.26L269.829 246.459L270.551 245.43L270.862 244.936C271.134 244.505 271.339 244.035 271.469 243.543C271.6 243.049 271.666 242.541 271.666 242.03V241.999V240.969V240.169V239.54V239.116C271.666 238.53 271.532 237.951 271.273 237.424C271.098 237.12 270.939 236.801 270.725 236.524C270.675 236.46 270.618 236.396 270.551 236.337C270.288 236.109 270.07 235.766 270.026 235.708C269.764 235.404 269.474 235.125 269.159 234.876L268.91 234.679L267.992 234.05L267.495 233.772C267.215 233.615 266.918 233.488 266.61 233.393C266.177 233.26 265.727 233.192 265.274 233.192H264.908H264.054H263.07H262.152H261.43C260.908 233.192 260.504 232.734 260.57 232.216Z" fill="#35110F"/>
<path d="M145.533 219.582C145.338 219.504 145.156 219.397 144.993 219.264L144.648 218.983C143.428 217.989 141.6 218.857 141.6 220.431V224.233L142.085 227.906L142.874 231.385L143.783 236.283L144.693 240.213L145.845 244.337L146.997 247.237L148.514 251.232L149.969 254.261L151.97 258.063L154.275 262.702L156.64 266.311L159.672 270.048L162.522 273.141L166.524 276.879L169.132 279.005L171.618 280.81L176.288 283.387L176.458 283.478C179.086 284.874 181.855 285.988 184.717 286.802L188.234 287.382L191.206 287.898L194.602 288.413L198.058 288.8H203.94L207.761 288.413L210.672 287.898L213.34 287.382C216.609 286.439 219.795 285.228 222.865 283.761L223.649 283.387L227.833 280.81L232.26 277.201L236.141 273.399L239.537 269.855L242.691 265.602L246.087 261.349C248.024 258.347 249.725 255.198 251.174 251.931L251.484 251.232L253.424 245.884L255.426 239.827L256.942 234.285L257.791 229.645L258.276 225.908L258.7 222.171V219.4V217.93C258.7 217.524 258.239 217.291 257.912 217.531L255.426 218.949C253.286 219.978 251.073 220.849 248.805 221.553L248.27 221.72L243.722 222.879L239.537 223.782L235.232 224.426L230.987 225.199L227.833 225.715L224.741 225.908L220.556 226.166L214.189 226.488H209.216H205.82H200.302H194.602H188.234H182.898L177.197 225.908L172.588 225.199L166.524 224.426L161.248 223.846L156.761 223.008L152.637 221.977L148.938 220.946L145.533 219.582Z" fill="#35110F"/>
<path d="M252.879 215.192C252.422 215.42 251.567 215.844 251.195 216.012C251.086 216.061 250.978 216.114 250.878 216.178L250.797 216.229C250.529 216.4 250.198 216.442 249.896 216.343C249.42 216.169 248.966 215.942 248.541 215.666L247.808 215.192L246.436 214.197L245.124 213.465L243.931 212.994L242.201 212.523L240.769 212.105L239.099 211.791L237.011 211.372L235.579 211.111L234.207 210.901L232.298 210.692L230.389 210.483L228.062 210.273L225.497 210.012L223.171 209.803L220.665 209.541L218.876 209.332L217.325 209.122L216.797 209.034C216.323 208.955 215.878 208.748 215.532 208.414C215.462 208.346 215.391 208.277 215.323 208.208C215.305 208.19 215.279 208.152 215.263 208.132C215.212 208.07 215.146 208.043 215.09 207.984L215.009 207.899C214.925 207.811 214.879 207.695 214.879 207.573C214.879 207.491 214.858 207.411 214.817 207.339L214.789 207.291C214.731 207.188 214.7 207.072 214.7 206.954V206.716V206.546C214.7 206.346 214.73 206.148 214.789 205.957L214.852 205.757C214.87 205.699 214.879 205.638 214.879 205.577C214.879 205.403 214.954 205.237 215.085 205.122L215.102 205.108C215.152 205.064 215.195 205.012 215.229 204.956L215.295 204.848C215.522 204.474 215.906 204.22 216.34 204.156L216.584 204.121C216.68 204.107 216.776 204.1 216.873 204.1H219.711H221.501L224.603 204.257L227.168 204.518L229.792 204.78L232.596 205.041L234.923 205.303L237.488 205.669L239.516 205.983L242.201 206.454L244.109 206.873L246.018 207.448L248.047 208.076L250.373 208.913L252.401 209.803L253.476 210.375C253.872 210.586 254.245 210.837 254.589 211.125L255.231 211.663C255.332 211.748 255.42 211.848 255.489 211.96L255.632 212.189C255.896 212.614 255.788 213.17 255.384 213.465L254.072 214.459L252.879 215.192Z" fill="#35110F"/>
<path d="M148.821 215.192C149.278 215.42 150.133 215.844 150.505 216.012C150.614 216.061 150.722 216.114 150.822 216.178L150.903 216.229C151.171 216.4 151.502 216.442 151.804 216.343C152.28 216.169 152.734 215.942 153.159 215.666L153.892 215.192L155.264 214.198L156.576 213.465L157.769 212.994L159.499 212.523L160.931 212.105L162.601 211.791L164.689 211.372L166.121 211.111L167.493 210.901L169.402 210.692L171.311 210.483L173.637 210.273L176.203 210.012L178.529 209.803L181.035 209.541L182.824 209.332L184.375 209.122L184.903 209.034C185.377 208.955 185.822 208.748 186.168 208.414C186.238 208.346 186.309 208.277 186.377 208.208C186.395 208.19 186.421 208.152 186.437 208.132C186.488 208.07 186.554 208.043 186.61 207.984L186.691 207.899C186.775 207.811 186.821 207.695 186.821 207.573C186.821 207.491 186.842 207.411 186.883 207.339L186.911 207.291C186.969 207.188 187 207.072 187 206.954V206.716V206.546C187 206.346 186.97 206.148 186.911 205.957L186.848 205.757C186.83 205.699 186.821 205.638 186.821 205.577C186.821 205.403 186.746 205.237 186.615 205.122L186.598 205.108C186.548 205.064 186.505 205.012 186.471 204.956L186.405 204.848C186.177 204.474 185.794 204.22 185.36 204.156L185.116 204.121C185.02 204.107 184.924 204.1 184.827 204.1H181.989H180.199L177.097 204.257L174.532 204.518L171.907 204.78L169.104 205.041L166.777 205.303L164.212 205.669L162.184 205.983L159.499 206.454L157.59 206.873L155.682 207.448L153.653 208.076L151.327 208.913L149.299 209.803L148.224 210.375C147.828 210.586 147.455 210.837 147.111 211.125L146.469 211.663C146.367 211.748 146.28 211.848 146.211 211.96L146.068 212.189C145.804 212.614 145.912 213.17 146.316 213.465L147.628 214.459L148.821 215.192Z" fill="#35110F"/>
<path d="M271.7 122C271.7 125.59 268.79 128.5 265.2 128.5C261.61 128.5 258.7 125.59 258.7 122C258.7 118.41 261.61 115.5 265.2 115.5C268.79 115.5 271.7 118.41 271.7 122Z" fill="#F5F2D5"/>
<path d="M154.6 97.2012C154.6 100.791 151.69 103.701 148.1 103.701C144.51 103.701 141.6 100.791 141.6 97.2012C141.6 93.6113 144.51 90.7012 148.1 90.7012C151.69 90.7012 154.6 93.6113 154.6 97.2012Z" fill="#F5F2D5"/>
<path d="M246.807 86.3713L246.917 86.1019C246.963 85.9902 246.909 85.8625 246.797 85.8169C246.771 85.8063 246.743 85.8008 246.715 85.8008H246.273H245.498L244.73 85.8688C244.499 85.8892 244.271 85.9299 244.048 85.9906C243.788 86.0611 243.536 86.1583 243.295 86.2805L242.881 86.4913L242.106 86.8858L240.895 87.527L239.441 88.2668L237.842 89.2039L236.098 90.141L235.032 90.8315L233.239 92.1631L231.155 93.5934L229.847 94.6292L228.636 95.6156L227.618 96.602L226.504 97.7857L224.905 99.1174L223.354 100.646L222.434 101.682L221.319 102.915L219.187 105.233L218.412 106.269L217.685 107.157L216.958 108.094L216.086 109.129L215.359 110.067C214.843 110.657 214.381 111.293 213.979 111.966L213.906 112.089L213.13 113.272L212.307 114.653L211.58 115.788L210.756 117.021L210.029 118.155L209.205 119.487L209.099 119.657C208.718 120.266 208.381 120.901 208.091 121.558L207.606 122.495L206.928 123.926L206.395 125.011L205.862 126.096L205.329 127.131L204.699 128.315L204.312 129.252L203.875 130.436L203.294 131.718L202.616 133.346L202.083 134.727L201.695 135.861L201.356 136.946L201.017 138.081L200.484 139.61L200.096 140.695L199.66 141.928L199.418 142.717L199.03 144.246L198.642 145.38L198.352 146.761L197.916 148.142L197.528 149.72L197.14 151.496L196.607 153.715L196.365 155.195L196.123 156.872L195.735 158.795L195.541 160.423L195.299 162.051L195.008 163.481L194.766 164.812L194.621 166.341V168.117V169.449V175.811V182.568V185.478V188.536L194.557 189.09C194.471 189.828 194.211 190.534 193.797 191.151L193.778 191.176C193.46 191.581 193.43 192.142 193.7 192.58C193.764 192.726 193.806 192.881 193.825 193.04L193.85 193.251V193.701V193.968C193.85 194.055 193.87 194.141 193.909 194.219C193.936 194.273 193.972 194.323 194.014 194.365L194.1 194.451C194.312 194.613 194.571 194.701 194.838 194.701H201.873C202.132 194.701 202.381 194.601 202.568 194.421C202.749 194.247 202.859 194.012 202.875 193.761L202.95 192.58L203.05 191.851C203.083 191.553 203.035 191.252 202.912 190.979L202.567 190.213C202.422 189.9 202.121 189.246 202.083 189.128C202.044 189.009 201.808 188.19 201.695 187.796C201.502 187.175 201.404 186.528 201.404 185.877V185.774V184.639V182.124V179.855V178.08V175.515V173.296V170.928V168.807V167.624C201.404 166.771 201.481 165.919 201.634 165.08L201.647 165.01L201.84 163.481L202.131 161.36L202.373 159.141L202.567 157.118L202.761 155.54L203.052 154.061L203.342 152.778L203.682 151.101L204.118 149.128L204.554 147.501L204.845 146.465L205.232 144.887L205.814 142.717L206.25 140.991L206.589 139.807L207.073 138.179L207.606 136.798L208.091 135.319L208.527 134.135L208.866 133.346L209.399 132.014L210.029 130.584L210.417 129.499L211.241 127.773L211.919 126.441L212.5 125.405L213.13 124.172L213.906 122.643L214.584 121.361L215.02 120.572L215.553 119.487L216.28 118.303L216.958 117.267L217.491 116.38L217.976 115.59L218.703 114.259L219.381 113.272L219.865 112.483L220.689 111.25L221.416 110.313L222.191 109.129C222.269 109.011 222.676 108.521 222.87 108.291C222.999 108.127 223.277 107.768 223.354 107.65C223.389 107.596 223.466 107.492 223.552 107.38C223.74 107.131 223.958 106.906 224.194 106.703C224.377 106.545 224.548 106.374 224.705 106.191L225.147 105.677L225.874 104.888L226.504 104.099L227.037 103.556L227.618 102.816L228.297 102.077L229.023 101.337L229.459 100.942L230.332 100.054L230.865 99.5119L232.028 98.3282L233.384 97.0459L234.256 96.3061L235.322 95.3197L236.388 94.4319L237.551 93.3962L238.52 92.5577L239.441 91.8672L240.507 91.2261L241.622 90.4369L242.639 89.5985L243.657 88.908L244.674 88.1189L244.81 88.0318C245.332 87.696 245.822 87.3124 246.273 86.8858L246.657 86.5731C246.723 86.5194 246.775 86.45 246.807 86.3713Z" fill="url(#paint0_linear_2022_115)"/>
<path d="M149.208 271.733C99.8108 286.896 158.951 306.405 202.281 306.316C246.925 306.224 297.096 284.174 251.376 271.303" stroke="#35110F" stroke-width="12" stroke-linecap="round"/>
<defs>
<linearGradient id="paint0_linear_2022_115" x1="220.125" y1="85.8008" x2="220.125" y2="194.701" gradientUnits="userSpaceOnUse">
<stop offset="0.645" stop-color="#7CA86F"/>
<stop offset="1" stop-color="#F5F2D5"/>
</linearGradient>
</defs>
</svg>
